<svg xmlns="http://www.w3.org/2000/svg" width="48" height="14.776" viewBox="0 0 48 14.776">
  <g id="symbols" transform="translate(0 -16.554)">
    <g id="Group_2149" data-name="Group 2149" transform="translate(16.78 16.8)">
      <g id="Group_2148" data-name="Group 2148">
        <path id="Path_443" data-name="Path 443" d="M19.161,16.8,16.722,31.115h3.9L23.065,16.8Z" transform="translate(-16.722 -16.799)" fill="#1434cb"/>
      </g>
    </g>
    <g id="Group_2151" data-name="Group 2151" transform="translate(3.875 16.813)">
      <g id="Group_2150" data-name="Group 2150">
        <path id="Path_444" data-name="Path 444" d="M13.5,16.815,9.674,26.578,9.267,25.1a15.317,15.317,0,0,0-5.4-5.935L7.356,31.107l4.128-.007,6.144-14.288Z" transform="translate(-3.862 -16.812)" fill="#1434cb"/>
      </g>
    </g>
    <g id="Group_2153" data-name="Group 2153" transform="translate(0 16.677)">
      <g id="Group_2152" data-name="Group 2152">
        <path id="Path_445" data-name="Path 445" d="M7.8,17.84a1.57,1.57,0,0,0-1.7-1.163H.05L0,16.962c4.707,1.142,7.822,3.893,9.115,7.2Z" transform="translate(0 -16.677)" fill="#1434cb"/>
      </g>
    </g>
    <g id="Group_2155" data-name="Group 2155" transform="translate(23.123 16.554)">
      <g id="Group_2154" data-name="Group 2154">
        <path id="Path_446" data-name="Path 446" d="M30.95,19.544a7.2,7.2,0,0,1,2.92.548l.352.166.528-3.1a10.071,10.071,0,0,0-3.5-.6c-3.855,0-6.573,1.942-6.594,4.724-.025,2.056,1.936,3.2,3.417,3.889,1.52.7,2.03,1.149,2.023,1.776-.012.958-1.212,1.4-2.333,1.4a8.19,8.19,0,0,1-3.674-.75l-.5-.229-.549,3.2a12.356,12.356,0,0,0,4.347.763c4.1,0,6.766-1.919,6.794-4.892.017-1.627-1.024-2.868-3.278-3.886-1.365-.664-2.2-1.106-2.192-1.776C28.715,20.181,29.423,19.544,30.95,19.544Z" transform="translate(-23.043 -16.554)" fill="#1434cb"/>
      </g>
    </g>
    <g id="Group_2157" data-name="Group 2157" transform="translate(33.992 16.816)">
      <g id="Group_2156" data-name="Group 2156">
        <path id="Path_447" data-name="Path 447" d="M44.726,16.815H41.711A1.941,1.941,0,0,0,39.667,18L33.874,31.122h4.1s.668-1.764.82-2.15l5,.006c.116.5.476,2.144.476,2.144h3.62Zm-4.812,9.227c.321-.822,1.554-4,1.554-4-.021.039.318-.828.52-1.367l.263,1.234.9,4.133Z" transform="translate(-33.874 -16.815)" fill="#1434cb"/>
      </g>
    </g>
  </g>
</svg>
